# xmcd
#
# Track frame offsets: 
#        150
#        15385
#        29826
#        45808
#        60079
#        74073
#        87532
#        102326
#        117305
#        130268
#        143945
#        159479
#        169593
#        187273
#        200800
#        215564
#
# Disc length: 2990 seconds
#
# Revision: 0
# Processed by: cddbd v1.5.1PL0 Copyright (c) Steve Scherf et al.
# Submitted via: ExactAudioCopy v0.95a5
#
DISCID=ec0bac10
DTITLE=Pinduca - Na Base do Xengo, Xengo
DYEAR=1900
DGENRE=Forro
TTITLE0=Briga de Cachorro Grande
TTITLE1=Xengo, Xengo do Pará
TTITLE2=De Pau na Mão
TTITLE3=Urubu com Chicória
TTITLE4=Maria Batalhão
TTITLE5=Carimbó do Bija-Flor
TTITLE6=Chega Pra Cá
TTITLE7=Dança Menina
TTITLE8=Com Você, Só Amor
TTITLE9=Doido Pela Sogra
TTITLE10=Vou Sorrir com Você
TTITLE11=Sorte Pran Você
TTITLE12=Pensando Bem
TTITLE13=Mãe Santa
TTITLE14=Corno Não
TTITLE15=Marcha do Vestibular
EXTD=
EXTT0=
EXTT1=
EXTT2=
EXTT3=
EXTT4=
EXTT5=
EXTT6=
EXTT7=
EXTT8=
EXTT9=
EXTT10=
EXTT11=
EXTT12=
EXTT13=
EXTT14=
EXTT15=
PLAYORDER=
